<svg width="181" height="28" viewBox="0 0 181 28" fill="none" xmlns="http://www.w3.org/2000/svg">
<path d="M115.664 1.472C116.128 1.088 116.656 0.896 117.248 0.896C117.84 0.896 118.136 1.016 118.136 1.256C118.136 1.352 118.064 1.496 117.92 1.688C117.792 1.976 117.192 3.064 116.12 4.952C113.32 9.848 111.92 13.112 111.92 14.744C111.92 14.872 111.952 14.936 112.016 14.936C112.112 14.936 112.272 14.776 112.496 14.456C113.152 13.32 113.992 12.016 115.016 10.544C116.04 9.072 117.008 7.776 117.92 6.656C118.832 5.536 119.864 4.488 121.016 3.512C122.168 2.536 123.216 1.928 124.16 1.688C125.728 1.432 126.744 1.304 127.208 1.304C127.256 1.32 127.28 1.36 127.28 1.424C127.28 1.472 127.192 1.544 127.016 1.64C125.208 2.648 122.96 4.568 120.272 7.4C117.6 10.216 115.184 13.112 113.024 16.088C112.448 17.064 112 17.672 111.68 17.912C111.36 18.152 110.976 18.272 110.528 18.272C109.696 18.272 109.28 17.392 109.28 15.632C109.28 14.864 109.432 14.08 109.736 13.28C110.856 10.288 111.904 8.144 112.88 6.848C113.424 6.048 113.696 5.608 113.696 5.528C113.696 5.48 113.6 5.576 113.408 5.816C109.424 10.824 106.608 14.104 104.96 15.656C103.824 16.84 102.536 18.056 101.096 19.304C99.656 20.552 98.504 21.408 97.64 21.872C97.368 22.096 97.08 22.208 96.776 22.208C96.472 22.208 96.104 22.08 95.672 21.824C95.24 21.568 95.024 21.272 95.024 20.936C95.024 20.76 95.12 20.6 95.312 20.456L99.248 17.144C99.488 16.936 99.64 16.832 99.704 16.832C99.752 16.832 99.776 16.864 99.776 16.928C99.776 16.976 99.752 17.048 99.704 17.144C99.656 17.24 99.584 17.344 99.488 17.456C99.376 17.568 99.264 17.672 99.152 17.768L98.744 18.2C98.248 18.696 98 18.968 98 19.016C98 19.08 98.016 19.112 98.048 19.112C98.08 19.112 98.16 19.064 98.288 18.968C99.824 17.912 102.04 15.928 104.936 13.016C107.832 10.088 110.344 7.432 112.472 5.048L115.664 1.472ZM120.342 15.992L120.534 14.456C120.534 14.408 120.518 14.384 120.486 14.384C120.47 14.384 120.43 14.416 120.366 14.48C120.158 14.704 119.894 14.984 119.574 15.32C119.254 15.64 118.702 16.08 117.918 16.64C117.15 17.184 116.526 17.456 116.046 17.456C115.966 17.44 115.87 17.408 115.758 17.36C115.63 17.328 115.47 17.2 115.278 16.976C115.086 16.752 114.99 16.432 114.99 16.016C114.99 15.6 115.31 14.968 115.95 14.12C116.574 13.256 117.326 12.416 118.206 11.6C119.086 10.768 120.062 10.048 121.134 9.44C122.222 8.832 123.166 8.528 123.966 8.528C124.27 8.544 124.51 8.76 124.686 9.176C124.846 9.016 124.99 8.936 125.118 8.936C125.246 8.936 125.398 9.032 125.574 9.224C125.67 9.24 125.766 9.296 125.862 9.392C125.958 9.472 126.006 9.592 126.006 9.752C126.006 9.912 125.894 10.088 125.67 10.28C125.334 10.696 124.942 11.168 124.494 11.696C124.046 12.224 123.726 12.608 123.534 12.848C123.342 13.072 123.142 13.328 122.934 13.616C122.582 14.112 122.39 14.512 122.358 14.816C123.99 14.032 126.558 12.344 130.062 9.752C130.206 9.864 130.278 10 130.278 10.16C130.278 10.32 130.214 10.456 130.086 10.568C129.958 10.68 129.798 10.816 129.606 10.976C129.43 11.136 129.07 11.448 128.526 11.912C127.982 12.376 127.454 12.824 126.942 13.256C126.446 13.672 125.87 14.144 125.214 14.672C124.574 15.184 123.998 15.624 123.486 15.992C122.254 16.872 121.486 17.312 121.182 17.312C120.878 17.312 120.662 17.216 120.534 17.024C120.406 16.832 120.342 16.488 120.342 15.992ZM117.894 14.984C118.086 14.984 118.67 14.592 119.646 13.808C120.638 13.024 121.574 12.24 122.454 11.456L123.798 10.28C123.862 10.216 123.894 10.176 123.894 10.16C123.894 10.128 123.87 10.112 123.822 10.112C123.214 10.112 122.422 10.464 121.446 11.168C120.47 11.856 119.622 12.592 118.902 13.376C118.198 14.144 117.846 14.664 117.846 14.936C117.846 14.968 117.862 14.984 117.894 14.984ZM134.422 9.992C134.662 10.168 134.782 10.336 134.782 10.496C134.782 10.64 134.71 10.776 134.566 10.904C134.438 11.032 133.694 12.016 132.334 13.856C130.974 15.68 130.054 16.936 129.574 17.624C129.11 18.312 128.782 18.808 128.59 19.112C128.398 19.432 127.998 19.992 127.39 20.792C126.798 21.592 126.198 22.312 125.59 22.952C124.982 23.608 124.254 24.232 123.406 24.824C122.542 25.432 121.718 25.816 120.934 25.976C120.598 25.976 120.262 25.904 119.926 25.76C119.286 25.488 118.966 24.984 118.966 24.248C118.966 23.32 119.838 22.224 121.582 20.96C123.31 19.712 124.598 19.088 125.446 19.088C125.574 19.088 125.638 19.112 125.638 19.16C125.638 19.208 125.558 19.288 125.398 19.4C124.022 20.344 122.774 21.36 121.654 22.448C120.518 23.552 119.95 24.336 119.95 24.8C119.95 24.864 119.998 24.896 120.094 24.896C120.19 24.896 120.398 24.792 120.718 24.584C121.486 24.04 122.574 23.048 123.982 21.608C125.534 19.88 126.486 18.776 126.838 18.296C127.462 17.448 128.206 16.568 129.07 15.656L129.55 15.152C129.566 15.12 129.59 15.088 129.622 15.056C129.654 15.024 129.694 14.968 129.742 14.888C129.87 14.68 129.926 14.576 129.91 14.576C129.862 14.576 129.758 14.656 129.598 14.816C129.438 14.976 129.206 15.2 128.902 15.488C128.614 15.76 128.118 16.136 127.414 16.616C126.71 17.08 126.142 17.312 125.71 17.312C125.278 17.312 124.942 17.168 124.702 16.88C124.462 16.592 124.342 16.288 124.342 15.968C124.342 15.632 124.55 15.136 124.966 14.48C125.382 13.824 125.926 13.112 126.598 12.344C127.27 11.576 128.134 10.864 129.19 10.208C130.262 9.552 131.358 9.16 132.478 9.032C133.134 9.176 133.558 9.408 133.75 9.728C133.782 9.712 133.846 9.704 133.942 9.704C134.038 9.704 134.198 9.8 134.422 9.992ZM126.982 15.056C127.398 15.024 128.118 14.64 129.142 13.904C130.182 13.168 131.118 12.432 131.95 11.696C132.798 10.96 133.222 10.536 133.222 10.424C133.222 10.392 133.19 10.376 133.126 10.376C132.294 10.552 131.366 10.992 130.342 11.696C129.318 12.4 128.486 13.08 127.846 13.736C127.206 14.392 126.886 14.808 126.886 14.984C126.886 15.032 126.918 15.056 126.982 15.056ZM137.381 15.992L137.573 14.456C137.573 14.408 137.557 14.384 137.525 14.384C137.509 14.384 137.469 14.416 137.405 14.48C137.197 14.704 136.933 14.984 136.613 15.32C136.293 15.64 135.741 16.08 134.957 16.64C134.189 17.184 133.565 17.456 133.085 17.456C133.005 17.44 132.909 17.408 132.797 17.36C132.669 17.328 132.509 17.2 132.317 16.976C132.125 16.752 132.029 16.432 132.029 16.016C132.029 15.6 132.349 14.968 132.989 14.12C133.613 13.256 134.365 12.416 135.245 11.6C136.125 10.768 137.101 10.048 138.173 9.44C139.261 8.832 140.205 8.528 141.005 8.528C141.309 8.544 141.549 8.76 141.725 9.176C141.885 9.016 142.029 8.936 142.157 8.936C142.285 8.936 142.437 9.032 142.613 9.224C142.709 9.24 142.805 9.296 142.901 9.392C142.997 9.472 143.045 9.592 143.045 9.752C143.045 9.912 142.933 10.088 142.709 10.28C142.373 10.696 141.981 11.168 141.533 11.696C141.085 12.224 140.765 12.608 140.573 12.848C140.381 13.072 140.181 13.328 139.973 13.616C139.621 14.112 139.429 14.512 139.397 14.816C141.029 14.032 143.597 12.344 147.101 9.752C147.245 9.864 147.317 10 147.317 10.16C147.317 10.32 147.253 10.456 147.125 10.568C146.997 10.68 146.837 10.816 146.645 10.976C146.469 11.136 146.109 11.448 145.565 11.912C145.021 12.376 144.493 12.824 143.981 13.256C143.485 13.672 142.909 14.144 142.253 14.672C141.613 15.184 141.037 15.624 140.525 15.992C139.293 16.872 138.525 17.312 138.221 17.312C137.917 17.312 137.701 17.216 137.573 17.024C137.445 16.832 137.381 16.488 137.381 15.992ZM134.933 14.984C135.125 14.984 135.709 14.592 136.685 13.808C137.677 13.024 138.613 12.24 139.493 11.456L140.837 10.28C140.901 10.216 140.933 10.176 140.933 10.16C140.933 10.128 140.909 10.112 140.861 10.112C140.253 10.112 139.461 10.464 138.485 11.168C137.509 11.856 136.661 12.592 135.941 13.376C135.237 14.144 134.885 14.664 134.885 14.936C134.885 14.968 134.901 14.984 134.933 14.984ZM147.717 9.056C147.845 9.056 148.053 9.12 148.341 9.248C148.645 9.376 148.797 9.52 148.797 9.68C148.797 9.792 148.757 9.904 148.677 10.016L146.877 12.512C146.669 12.768 146.565 12.912 146.565 12.944C146.565 12.976 146.573 12.992 146.589 12.992L146.709 12.92C148.565 11.624 150.093 10.488 151.293 9.512C151.517 9.352 151.701 9.272 151.845 9.272C152.005 9.272 152.109 9.288 152.157 9.32L152.829 9.512C152.989 9.592 153.069 9.696 153.069 9.824C153.069 9.952 153.037 10.056 152.973 10.136C152.669 10.472 152.317 10.856 151.917 11.288C151.533 11.704 151.245 12.024 151.053 12.248C150.861 12.456 150.645 12.696 150.405 12.968C150.165 13.24 149.989 13.448 149.877 13.592C149.781 13.736 149.669 13.904 149.541 14.096C149.413 14.272 149.325 14.424 149.277 14.552C149.181 14.92 149.133 15.24 149.133 15.512C149.133 15.656 149.221 15.728 149.397 15.728C149.589 15.728 149.925 15.616 150.405 15.392C150.901 15.168 151.485 14.824 152.157 14.36C152.845 13.896 153.749 13.24 154.869 12.392C156.005 11.528 156.997 10.8 157.845 10.208C157.989 10.32 158.061 10.456 158.061 10.616C158.061 10.776 157.989 10.92 157.845 11.048C157.333 11.544 156.685 12.168 155.901 12.92C155.117 13.656 153.917 14.648 152.301 15.896C150.701 17.144 149.581 17.768 148.941 17.768C147.709 17.768 147.093 17.112 147.093 15.8C147.093 15.304 147.285 14.784 147.669 14.24L148.701 12.824C148.797 12.68 148.845 12.6 148.845 12.584C148.845 12.552 148.797 12.576 148.701 12.656C145.917 14.976 144.141 16.336 143.373 16.736C143.245 16.816 143.085 16.856 142.893 16.856C142.365 16.856 142.101 16.616 142.101 16.136C142.101 15.976 142.141 15.832 142.221 15.704C143.405 14.616 144.237 13.728 144.717 13.04C145.101 12.656 145.501 12.12 145.917 11.432C146.349 10.744 146.709 10.176 146.997 9.728C147.301 9.28 147.541 9.056 147.717 9.056ZM162.596 9.248C163.348 9.328 163.724 9.496 163.724 9.752C163.724 9.864 163.66 9.992 163.532 10.136C161.276 12.648 158.684 15.848 155.756 19.736C154.908 20.888 154.044 21.976 153.164 23C152.284 24.024 151.46 24.768 150.692 25.232C149.924 25.712 149.124 25.952 148.292 25.952C147.876 25.952 147.508 25.84 147.188 25.616C146.868 25.392 146.708 25.088 146.708 24.704C146.708 23.808 147.14 22.88 148.004 21.92C148.868 20.96 149.836 20.176 150.908 19.568C151.98 18.976 152.908 18.632 153.692 18.536L154.196 18.608C154.356 18.592 154.94 17.976 155.948 16.76C156.972 15.544 157.484 14.904 157.484 14.84C157.5 14.76 157.492 14.72 157.46 14.72L157.004 15.08C155.804 16.2 154.868 16.76 154.196 16.76C153.764 16.76 153.548 16.456 153.548 15.848C153.548 15.032 154.212 13.744 155.54 11.984C156.868 10.224 157.844 9.344 158.468 9.344C158.516 9.344 158.572 9.36 158.636 9.392C159.084 9.504 159.308 9.664 159.308 9.872C159.308 9.952 159.284 10.016 159.236 10.064C159.204 10.096 159.044 10.248 158.756 10.52C158.484 10.792 158.212 11.08 157.94 11.384C157.668 11.672 157.38 11.992 157.076 12.344C156.388 13.144 156.044 13.744 156.044 14.144C156.044 14.24 156.092 14.288 156.188 14.288C156.3 14.288 156.5 14.2 156.788 14.024C159.06 12.472 160.836 10.992 162.116 9.584C162.228 9.36 162.388 9.248 162.596 9.248ZM147.956 24.896C148.516 24.72 149.268 24.168 150.212 23.24C151.156 22.328 151.964 21.464 152.636 20.648L153.644 19.4C153.74 19.272 153.788 19.192 153.788 19.16C153.788 19.128 153.764 19.112 153.716 19.112C153.204 19.112 152.476 19.504 151.532 20.288C150.572 21.072 149.724 21.928 148.988 22.856C148.236 23.784 147.86 24.44 147.86 24.824C147.86 24.872 147.892 24.896 147.956 24.896ZM165.67 15.992L165.862 14.456C165.862 14.408 165.846 14.384 165.814 14.384C165.798 14.384 165.758 14.416 165.694 14.48C165.486 14.704 165.222 14.984 164.902 15.32C164.582 15.64 164.03 16.08 163.246 16.64C162.478 17.184 161.854 17.456 161.374 17.456C161.294 17.44 161.198 17.408 161.086 17.36C160.958 17.328 160.798 17.2 160.606 16.976C160.414 16.752 160.318 16.432 160.318 16.016C160.318 15.6 160.638 14.968 161.278 14.12C161.902 13.256 162.654 12.416 163.534 11.6C164.414 10.768 165.39 10.048 166.462 9.44C167.55 8.832 168.494 8.528 169.294 8.528C169.598 8.544 169.838 8.76 170.014 9.176C170.174 9.016 170.318 8.936 170.446 8.936C170.574 8.936 170.726 9.032 170.902 9.224C170.998 9.24 171.094 9.296 171.19 9.392C171.286 9.472 171.334 9.592 171.334 9.752C171.334 9.912 171.222 10.088 170.998 10.28C170.662 10.696 170.27 11.168 169.822 11.696C169.374 12.224 169.054 12.608 168.862 12.848C168.67 13.072 168.47 13.328 168.262 13.616C167.91 14.112 167.718 14.512 167.686 14.816C169.318 14.032 171.886 12.344 175.39 9.752C175.534 9.864 175.606 10 175.606 10.16C175.606 10.32 175.542 10.456 175.414 10.568C175.286 10.68 175.126 10.816 174.934 10.976C174.758 11.136 174.398 11.448 173.854 11.912C173.31 12.376 172.782 12.824 172.27 13.256C171.774 13.672 171.198 14.144 170.542 14.672C169.902 15.184 169.326 15.624 168.814 15.992C167.582 16.872 166.814 17.312 166.51 17.312C166.206 17.312 165.99 17.216 165.862 17.024C165.734 16.832 165.67 16.488 165.67 15.992ZM163.222 14.984C163.414 14.984 163.998 14.592 164.974 13.808C165.966 13.024 166.902 12.24 167.782 11.456L169.126 10.28C169.19 10.216 169.222 10.176 169.222 10.16C169.222 10.128 169.198 10.112 169.15 10.112C168.542 10.112 167.75 10.464 166.774 11.168C165.798 11.856 164.95 12.592 164.23 13.376C163.526 14.144 163.174 14.664 163.174 14.936C163.174 14.968 163.19 14.984 163.222 14.984Z" fill="#FC047B"/>
<path d="M3.09375 4.75C3.51562 4.76562 3.875 4.92188 4.17188 5.21875C4.46875 5.5 4.625 5.85156 4.64062 6.27344V10.1875H12.2578V6.27344C12.2734 5.83594 12.4375 5.47656 12.75 5.19531C13.0625 4.89844 13.4375 4.75 13.875 4.75C14.2969 4.76562 14.6562 4.92188 14.9531 5.21875C15.25 5.5 15.4062 5.85156 15.4219 6.27344V17.7578C15.3281 18.6953 14.8125 19.2031 13.875 19.2812C13.4375 19.2812 13.0547 19.1406 12.7266 18.8594C12.4141 18.5625 12.2578 18.1953 12.2578 17.7578V13.3281H4.64062V17.7578C4.54688 18.6953 4.03125 19.2031 3.09375 19.2812C2.65625 19.2812 2.27344 19.1406 1.94531 18.8594C1.63281 18.5625 1.47656 18.1953 1.47656 17.7578V6.27344C1.49219 5.83594 1.65625 5.47656 1.96875 5.19531C2.28125 4.89844 2.65625 4.75 3.09375 4.75ZM30.9141 5.125C31.7109 5.14062 32.4219 5.39063 33.0469 5.875C33.6719 6.35937 34.1719 6.9375 34.5469 7.60938C34.9375 8.28125 35.2266 8.99219 35.4141 9.74219C35.6016 10.4922 35.6953 11.2578 35.6953 12.0391C35.6953 13.0703 35.5312 14.0859 35.2031 15.0859C34.8906 16.0703 34.3672 16.9453 33.6328 17.7109C32.9141 18.4766 32.0078 18.8906 30.9141 18.9531H22.7344C21.6406 18.9062 20.7266 18.5 19.9922 17.7344C19.2578 16.9688 18.7344 16.0859 18.4219 15.0859C18.125 14.0859 17.9766 13.0703 17.9766 12.0391C17.9766 11.0078 18.1328 10 18.4453 9.01562C18.7578 8.01562 19.2734 7.13281 19.9922 6.36719C20.7266 5.58594 21.6406 5.17188 22.7344 5.125H23.1797H30.4688H30.9141ZM30.1172 15.8125C30.7109 15.7812 31.2031 15.5625 31.5938 15.1562C32 14.7344 32.2891 14.25 32.4609 13.7031C32.6328 13.1562 32.7188 12.6016 32.7188 12.0391C32.7188 11.4766 32.625 10.9297 32.4375 10.3984C32.2656 9.85156 31.9844 9.36719 31.5938 8.94531C31.2031 8.52344 30.7109 8.29688 30.1172 8.26562H23.4609C22.8672 8.29688 22.375 8.52344 21.9844 8.94531C21.5938 9.36719 21.3047 9.85156 21.1172 10.3984C20.9453 10.9297 20.8594 11.4766 20.8594 12.0391C20.8594 12.6016 20.9453 13.1562 21.1172 13.7031C21.2891 14.25 21.5703 14.7344 21.9609 15.1562C22.3672 15.5625 22.8672 15.7812 23.4609 15.8125H30.1172ZM37.8047 6.69531C37.8047 6.25781 37.9531 5.89062 38.25 5.59375C38.5625 5.28125 38.9375 5.125 39.375 5.125H53.0156C53.4531 5.125 53.8281 5.27344 54.1406 5.57031C54.4375 5.88281 54.5859 6.25781 54.5859 6.69531C54.5859 7.13281 54.4297 7.50781 54.1172 7.82031C53.8203 8.11719 53.4531 8.26562 53.0156 8.26562H47.7891V17.7578C47.6953 18.6953 47.1797 19.2031 46.2422 19.2812C45.8047 19.2812 45.4219 19.1406 45.0938 18.8594C44.7812 18.5625 44.625 18.1953 44.625 17.7578V8.26562H39.375C38.9375 8.26562 38.5703 8.10938 38.2734 7.79688C37.9609 7.5 37.8047 7.13281 37.8047 6.69531ZM61.4062 5.125H62.4844H70.4531C70.8906 5.14062 71.25 5.30469 71.5312 5.61719C71.8281 5.92969 71.9766 6.30469 71.9766 6.74219C71.8984 7.67969 71.3906 8.1875 70.4531 8.26562H62.2031C61.6094 8.29688 61.1172 8.52344 60.7266 8.94531C60.3359 9.36719 60.0469 9.85156 59.8594 10.3984C59.6875 10.9297 59.6016 11.4766 59.6016 12.0391C59.6016 12.6016 59.6875 13.1562 59.8594 13.7031C60.0469 14.2344 60.3359 14.7109 60.7266 15.1328C61.1172 15.5547 61.6094 15.7812 62.2031 15.8125H70.4531C70.8906 15.8281 71.25 15.9922 71.5312 16.3047C71.8281 16.6172 71.9766 16.9922 71.9766 17.4297C71.9609 17.8516 71.8047 18.2109 71.5078 18.5078C71.2266 18.7891 70.875 18.9375 70.4531 18.9531H61.8516H61.4062C60.3125 18.8906 59.4062 18.4766 58.6875 17.7109C57.9844 16.9297 57.4766 16.0469 57.1641 15.0625C56.8672 14.0781 56.7188 13.0703 56.7188 12.0391C56.7188 11.0078 56.875 10 57.1875 9.01562C57.5 8.03125 58.0078 7.15625 58.7109 6.39062C59.4141 5.60937 60.3125 5.1875 61.4062 5.125ZM71.9297 11.9453C71.9297 12.3828 71.7734 12.75 71.4609 13.0469C71.1641 13.3594 70.7969 13.5156 70.3594 13.5156H63.2812C62.8438 13.5156 62.4688 13.3672 62.1562 13.0703C61.8594 12.7578 61.7109 12.3828 61.7109 11.9453C61.7109 11.5078 61.8594 11.1328 62.1562 10.8203C62.4688 10.5234 62.8438 10.375 63.2812 10.375H70.3594C70.7969 10.375 71.1641 10.5312 71.4609 10.8438C71.7734 11.1406 71.9297 11.5078 71.9297 11.9453ZM75.8906 4.75C76.3281 4.75 76.7031 4.89844 77.0156 5.19531C77.3281 5.47656 77.4922 5.83594 77.5078 6.27344V11.9219C77.4922 12.5625 77.5312 13.1562 77.625 13.7031C77.7344 14.2344 77.9844 14.7109 78.375 15.1328C78.7656 15.5547 79.2578 15.7812 79.8516 15.8125H87.3516C87.7891 15.8281 88.1484 15.9922 88.4297 16.3047C88.7266 16.6172 88.875 16.9922 88.875 17.4297C88.8594 17.8516 88.7031 18.2109 88.4062 18.5078C88.125 18.7891 87.7734 18.9375 87.3516 18.9531H79.0547C77.9609 18.8906 77.0547 18.5234 76.3359 17.8516C75.6328 17.1641 75.125 16.3281 74.8125 15.3438C74.5156 14.3594 74.3594 13.3125 74.3438 12.2031V6.27344C74.3594 5.85156 74.5156 5.5 74.8125 5.21875C75.1094 4.92188 75.4688 4.76562 75.8906 4.75Z" fill="white"/>
</svg>
